<?xml version="1.0" standalone="no"?>
<!DOCTYPE svg PUBLIC "-//W3C//DTD SVG 20010904//EN"
 "http://www.w3.org/TR/2001/REC-SVG-20010904/DTD/svg10.dtd">
<svg version="1.0" xmlns="http://www.w3.org/2000/svg"
 width="512.000000pt" height="512.000000pt" viewBox="0 0 512.000000 512.000000"
 preserveAspectRatio="xMidYMid meet">

<g transform="translate(0.000000,512.000000) scale(0.100000,-0.100000)"
fill="#000000" stroke="none">
<path d="M2315 5109 c-453 -47 -869 -203 -1241 -466 -50 -35 -96 -75 -103 -89
-20 -44 -13 -83 18 -115 42 -42 93 -40 152 5 164 125 443 274 639 341 513 176
1048 176 1561 0 57 -20 172 -69 254 -110 1003 -488 1523 -1611 1250 -2696
-106 -419 -347 -831 -661 -1128 -842 -797 -2124 -866 -3054 -165 -601 452
-961 1218 -926 1964 17 362 96 657 263 989 51 102 93 192 93 200 0 32 -39 79
-74 91 -54 18 -94 -6 -138 -83 -264 -456 -384 -994 -337 -1507 55 -610 311
-1159 740 -1589 398 -398 886 -640 1466 -728 158 -24 539 -24 693 0 293 46
524 118 775 241 279 138 479 282 692 497 209 212 344 401 473 664 94 190 139
311 185 489 156 613 95 1210 -179 1771 -134 272 -283 480 -498 692 -212 211
-403 346 -673 479 -252 123 -494 198 -777 240 -126 18 -470 26 -593 13z"/>
<path d="M2340 4395 c-284 -35 -556 -135 -795 -292 -161 -106 -274 -206 -393
-348 -614 -731 -581 -1782 77 -2479 69 -73 215 -192 316 -259 353 -232 781
-338 1196 -297 458 47 902 274 1199 613 563 641 624 1554 152 2258 -264 393
-670 670 -1133 773 -208 46 -412 56 -619 31z m371 -196 c217 -22 404 -76 599
-175 301 -153 561 -413 714 -714 244 -482 244 -1018 0 -1500 -153 -301 -413
-561 -714 -714 -482 -244 -1018 -244 -1500 0 -413 210 -727 601 -844 1054 -38
147 -50 242 -50 410 0 285 53 501 186 761 299 585 959 945 1609 878z"/>
<path d="M2412 3700 c-251 -35 -485 -152 -662 -330 -130 -130 -240 -308 -285
-465 l-16 -55 -95 0 c-106 0 -127 -7 -149 -50 -24 -46 -19 -78 19 -116 33 -33
37 -34 110 -34 l76 0 0 -84 c0 -46 3 -91 6 -99 4 -12 -10 -16 -81 -18 -84 -4
-88 -5 -117 -38 -26 -29 -30 -39 -25 -74 9 -69 31 -81 154 -87 l106 -5 17 -50
c103 -301 339 -559 628 -685 346 -153 748 -124 1067 75 155 96 154 107 -21
345 -74 102 -145 190 -157 197 -36 20 -69 15 -131 -23 -170 -102 -370 -113
-543 -28 -52 25 -193 146 -193 165 0 5 125 9 279 9 l279 0 31 29 c22 21 31 38
31 61 0 38 -23 84 -47 96 -10 5 -164 11 -343 14 l-325 5 -3 98 -3 97 327 0
326 0 34 34 c43 43 46 91 10 133 l-24 28 -299 5 -298 5 80 81 c125 126 239
171 416 162 113 -6 182 -29 278 -92 80 -53 125 -60 165 -23 42 38 277 329 287
355 23 59 -11 104 -146 191 -95 61 -226 117 -349 147 -114 28 -308 39 -414 24z
m367 -220 c91 -22 196 -64 259 -104 l42 -26 -61 -75 c-34 -41 -65 -75 -70 -75
-4 0 -23 9 -41 19 -56 33 -180 70 -269 80 -222 25 -444 -53 -604 -213 -292
-293 -292 -760 0 -1051 204 -205 500 -272 773 -175 48 17 92 32 99 33 6 1 37
-32 68 -73 56 -75 56 -75 35 -92 -29 -24 -167 -75 -253 -95 -95 -21 -297 -21
-394 1 -363 80 -649 366 -729 729 -22 96 -22 298 0 394 41 184 136 353 273
484 156 149 340 235 563 263 66 8 227 -5 309 -24z"/>
<path d="M684 4290 c-60 -24 -73 -112 -25 -161 40 -40 89 -40 133 0 84 75 -2
204 -108 161z"/>
</g>
</svg>
