<?xml version="1.0" standalone="no"?>
<!DOCTYPE svg PUBLIC "-//W3C//DTD SVG 20010904//EN"
 "http://www.w3.org/TR/2001/REC-SVG-20010904/DTD/svg10.dtd">
<svg version="1.0" xmlns="http://www.w3.org/2000/svg"
 width="512.000000pt" height="512.000000pt" viewBox="0 0 512.000000 512.000000"
 preserveAspectRatio="xMidYMid meet">

<g transform="translate(0.000000,512.000000) scale(0.100000,-0.100000)"
fill="#000000" stroke="none">
<path d="M2370 5114 c-19 -2 -78 -9 -130 -15 -791 -90 -1522 -586 -1924 -1305
-146 -262 -252 -587 -297 -914 -20 -143 -18 -527 4 -670 90 -586 331 -1065
738 -1467 63 -62 155 -145 204 -185 642 -513 1493 -684 2290 -461 929 260
1646 1043 1819 1987 156 845 -103 1682 -705 2285 -399 398 -879 639 -1449 726
-100 15 -472 28 -550 19z m405 -154 c566 -52 1080 -294 1485 -700 278 -277
462 -574 585 -945 166 -498 166 -1013 0 -1510 -124 -372 -307 -668 -585 -945
-279 -280 -587 -470 -956 -590 -885 -287 -1847 -43 -2488 631 -793 834 -887
2100 -226 3045 289 413 724 736 1211 898 321 107 648 146 974 116z"/>
<path d="M2345 4810 c-428 -45 -812 -196 -1151 -451 -142 -107 -168 -147 -125
-200 34 -42 75 -32 166 42 281 227 609 374 981 440 186 33 502 33 689 0 899
-159 1582 -841 1734 -1731 147 -858 -255 -1717 -1012 -2168 -632 -376 -1436
-387 -2082 -29 -571 317 -951 852 -1066 1502 -33 187 -33 503 0 689 66 373
212 699 440 981 74 91 84 132 42 166 -53 43 -93 17 -200 -125 -97 -129 -164
-239 -237 -391 -425 -880 -229 -1941 482 -2614 907 -858 2336 -820 3193 85
826 873 826 2235 0 3108 -344 363 -804 605 -1299 681 -123 19 -440 27 -555 15z"/>
<path d="M2377 4210 c-506 -64 -940 -333 -1210 -750 -355 -549 -355 -1251 0
-1800 340 -525 951 -817 1571 -749 572 62 1077 422 1322 942 245 521 204 1126
-108 1607 -251 388 -652 654 -1107 735 -106 19 -371 27 -468 15z m474 -169
c611 -123 1080 -600 1195 -1216 26 -138 26 -392 0 -530 -116 -624 -597 -1105
-1221 -1221 -138 -26 -392 -26 -530 0 -624 116 -1105 597 -1221 1221 -26 138
-26 392 0 530 88 474 383 867 813 1084 157 79 307 123 528 155 70 10 344 -4
436 -23z"/>
<path d="M1912 3550 c-14 -14 -22 -33 -22 -55 0 -48 31 -75 88 -75 42 0 43 -1
38 -27 -10 -44 -266 -1477 -266 -1485 0 -5 -26 -8 -58 -8 -45 0 -63 -5 -80
-20 -30 -28 -30 -82 0 -110 21 -19 33 -20 423 -20 390 0 402 1 423 20 30 28
30 82 0 110 -15 14 -35 20 -66 20 -42 0 -43 1 -38 28 30 142 276 1540 276
1566 0 23 -7 42 -22 56 -21 19 -34 20 -348 20 -314 0 -327 -1 -348 -20z m554
-157 c-10 -44 -266 -1477 -266 -1485 0 -5 -68 -8 -151 -8 l-151 0 6 28 c10 48
266 1476 266 1484 0 4 68 8 151 8 l151 0 -6 -27z"/>
<path d="M3121 2935 c-153 -43 -273 -159 -316 -308 l-16 -57 -58 0 c-68 0 -91
-18 -91 -72 0 -46 25 -67 89 -75 l51 -6 0 -73 0 -74 -53 0 c-64 0 -87 -19 -87
-72 0 -47 24 -67 95 -76 57 -7 58 -8 70 -47 47 -158 182 -282 343 -316 111
-23 251 7 341 71 36 26 41 35 41 69 0 46 -24 71 -69 71 -18 0 -45 -8 -59 -19
-107 -76 -262 -64 -363 27 -45 40 -89 105 -89 131 0 6 78 11 194 13 174 3 196
5 215 22 27 24 29 86 3 109 -15 14 -50 17 -223 19 l-204 3 -3 72 -3 72 205 3
c184 3 206 5 225 22 27 25 29 86 3 109 -16 15 -46 17 -215 17 -220 0 -214 -2
-177 69 45 89 164 161 266 161 50 0 127 -24 166 -51 34 -24 90 -25 111 -1 10
10 17 35 17 55 0 32 -6 41 -41 67 -95 68 -255 97 -368 65z"/>
</g>
</svg>
